<svg width="87" height="54" viewBox="0 0 87 54" fill="none" xmlns="http://www.w3.org/2000/svg">
<g clip-path="url(#clip0_154_273)">
<path d="M27.1099 20.9613V22.0524H28.8853C29.8977 19.9853 32.0122 18.5588 34.4658 18.5588C36.9195 18.5588 39.034 19.9853 40.0464 22.0524H41.8168V20.9613C39.2036 20.2255 37.2885 17.8181 37.2885 14.9602C37.2885 14.3996 37.3633 13.854 37.503 13.3335H31.4287C31.5683 13.849 31.6431 14.3946 31.6431 14.9602C31.6431 17.8181 29.7281 20.2255 27.1148 20.9613H27.1099Z" fill="#96C93D"/>
<path d="M34.4658 10.2354C37.2786 10.2354 39.5627 7.93808 39.5627 5.12021C39.5627 2.30234 37.2736 0 34.4658 0C31.6581 0 29.369 2.29734 29.369 5.12021C29.369 7.94309 31.6581 10.2354 34.4658 10.2354Z" fill="#96C93D"/>
<path d="M45.1832 20.9613V22.0524H46.9536C47.966 19.9853 50.0855 18.5588 52.5342 18.5588C54.9828 18.5588 57.1073 19.9853 58.1147 22.0524H59.8851V20.9613C57.2719 20.2255 55.3569 17.8181 55.3569 14.9602C55.3569 14.3996 55.4317 13.854 55.5713 13.3335H49.497C49.6366 13.849 49.7115 14.3946 49.7115 14.9602C49.7115 17.8181 47.7964 20.2255 45.1832 20.9613Z" fill="#96C93D"/>
<path d="M52.5341 10.2354C55.3469 10.2354 57.6359 7.93808 57.6359 5.12021C57.6359 2.30234 55.3518 0 52.5341 0C49.7164 0 47.4373 2.29734 47.4373 5.12021C47.4373 7.94309 49.7264 10.2354 52.5341 10.2354Z" fill="#96C93D"/>
<path d="M32.7802 31.8977V30.8066C30.4163 30.1409 28.621 28.1039 28.3018 25.6013C28.2769 25.4161 28.2619 25.2309 28.2569 25.0407C28.2569 24.9606 28.2519 24.8806 28.2519 24.8005C28.2519 24.6954 28.2519 24.5903 28.2619 24.4802C28.2819 24.0297 28.3517 23.5943 28.4664 23.1738H22.3921C22.5317 23.6894 22.6065 24.2349 22.6065 24.8005C22.6065 27.6584 20.6915 30.0658 18.0782 30.8066V31.8977H19.8487C20.861 29.8306 22.9756 28.4042 25.4292 28.4042C27.8829 28.4042 29.9974 29.8256 31.0098 31.8977H32.7852H32.7802Z" fill="#96C93D"/>
<path d="M25.4242 20.0753C25.6187 20.0753 25.8082 20.0653 25.9928 20.0452C26.1823 20.0252 26.3668 19.9902 26.5513 19.9501C26.7408 19.9101 26.9253 19.85 27.1099 19.79C29.0997 19.0893 30.526 17.1873 30.526 14.9601C30.526 14.3995 30.4363 13.8589 30.2717 13.3534C30.2118 13.1682 30.137 12.9881 30.0572 12.8129C29.9775 12.6327 29.8827 12.4625 29.783 12.2923C28.8853 10.8208 27.2695 9.83984 25.4292 9.83984C22.6165 9.83984 20.3324 12.1372 20.3324 14.9551C20.3324 17.7729 22.6215 20.0703 25.4292 20.0703L25.4242 20.0753Z" fill="#96C93D"/>
<path d="M50.8535 31.8977V30.8066C48.4896 30.1359 46.6942 28.0988 46.375 25.6013C46.3501 25.4161 46.3352 25.2309 46.3302 25.0407C46.3302 24.9606 46.3252 24.8806 46.3252 24.8005C46.3252 24.6954 46.3252 24.5903 46.3352 24.4802C46.3551 24.0297 46.4249 23.5943 46.5396 23.1738H40.4653C40.58 23.5943 40.6499 24.0297 40.6698 24.4802C40.6748 24.5853 40.6798 24.6904 40.6798 24.8005C40.6798 24.8806 40.6798 24.9606 40.6748 25.0407C40.6698 25.2309 40.6548 25.4161 40.6299 25.6013C40.3107 28.1039 38.5204 30.1409 36.1515 30.8066V31.8977H37.9219C38.9343 29.8306 41.0538 28.4042 43.5025 28.4042C45.9511 28.4042 48.0707 29.8256 49.083 31.8977H50.8535Z" fill="#96C93D"/>
<path d="M38.8695 12.8132C38.7897 12.9884 38.7149 13.1686 38.655 13.3538C38.4855 13.8593 38.4007 14.3948 38.4007 14.9604C38.4007 17.1877 39.827 19.0896 41.8169 19.7903C41.9964 19.8554 42.1859 19.9055 42.3754 19.9505C42.555 19.9956 42.7445 20.0256 42.934 20.0506C43.1185 20.0706 43.313 20.0806 43.5075 20.0806C43.702 20.0806 43.8915 20.0706 44.076 20.0506C44.2655 20.0306 44.4501 19.9956 44.6346 19.9555C44.8241 19.9155 45.0086 19.8554 45.1931 19.7953C47.183 19.0946 48.6093 17.1927 48.6093 14.9654C48.6093 14.4049 48.5195 13.8643 48.355 13.3588C48.2951 13.1736 48.2203 12.9934 48.1405 12.8182C48.0607 12.6381 47.966 12.4679 47.8662 12.2977C46.9685 10.8262 45.3527 9.84521 43.5125 9.84521C41.6722 9.84521 40.0564 10.8262 39.1587 12.2977C39.054 12.4679 38.9593 12.6381 38.8795 12.8182L38.8695 12.8132Z" fill="#96C93D"/>
<path d="M68.9268 31.8977V30.8066C66.3135 30.0709 64.3985 27.6634 64.3985 24.8005C64.3985 24.2399 64.4733 23.6944 64.6129 23.1738H58.5386C58.6533 23.5943 58.7232 24.0297 58.7431 24.4802C58.7481 24.5853 58.7531 24.6904 58.7531 24.8005C58.7531 24.8806 58.7531 24.9606 58.7481 25.0407C58.7431 25.2309 58.7281 25.4161 58.7032 25.6013C58.384 28.0988 56.5937 30.1409 54.2248 30.8066V31.8977H55.9952C57.0076 29.8306 59.1221 28.4042 61.5758 28.4042C64.0294 28.4042 66.144 29.8256 67.1563 31.8977H68.9318H68.9268Z" fill="#96C93D"/>
<path d="M56.9477 12.8132C56.8679 12.9884 56.7931 13.1686 56.7333 13.3538C56.5637 13.8593 56.4789 14.3948 56.4789 14.9604C56.4789 17.1927 57.9102 19.0946 59.8951 19.7903C60.0746 19.8554 60.2642 19.9055 60.4537 19.9505C60.6332 19.9905 60.8227 20.0256 61.0122 20.0456C61.1967 20.0656 61.3863 20.0756 61.5808 20.0756C64.3935 20.0756 66.6776 17.7783 66.6776 14.9604C66.6776 12.1426 64.3885 9.84521 61.5808 9.84521C59.7405 9.84521 58.1247 10.8262 57.227 12.2977C57.1273 12.4679 57.0325 12.6381 56.9527 12.8182L56.9477 12.8132Z" fill="#96C93D"/>
<path d="M21.5742 41.7324H23.7436V40.6413C21.3747 39.9756 19.5794 37.9386 19.2652 35.436C19.2403 35.2508 19.2253 35.0656 19.2203 34.8754C19.2203 34.7954 19.2153 34.7153 19.2153 34.6402C19.2153 34.5351 19.2153 34.425 19.2253 34.3199C19.2452 33.8744 19.3151 33.434 19.4298 33.0186H13.3555C13.4951 33.5341 13.5699 34.0796 13.5699 34.6452C13.5699 37.5031 11.6549 39.9106 9.04163 40.6463V41.7374H11.211C12.9615 41.7374 14.4875 42.7184 15.2655 44.1599H17.5247C18.3027 42.7184 19.8237 41.7374 21.5792 41.7374L21.5742 41.7324Z" fill="#96C93D"/>
<path d="M16.3876 29.9152C16.5821 29.9152 16.7716 29.9052 16.9611 29.8852C17.1506 29.8652 17.3352 29.8301 17.5197 29.7851C17.7092 29.7451 17.8937 29.69 18.0782 29.6249C20.0681 28.9242 21.4944 27.0223 21.4944 24.795C21.4944 24.2344 21.4046 23.6939 21.2351 23.1884C21.1752 23.0032 21.1054 22.823 21.0256 22.6478C20.9458 22.4676 20.8511 22.2975 20.7463 22.1273C19.8487 20.6558 18.2378 19.6748 16.3926 19.6748C13.5799 19.6748 11.2958 21.9721 11.2958 24.79C11.2958 27.6079 13.5849 29.9102 16.3926 29.9102L16.3876 29.9152Z" fill="#96C93D"/>
<path d="M39.6475 41.7324H41.8168V40.6413C39.448 39.9706 37.6526 37.9386 37.3384 35.436C37.3135 35.2508 37.2985 35.0656 37.2935 34.8754C37.2935 34.7954 37.2886 34.7153 37.2886 34.6402C37.2886 34.5351 37.2886 34.425 37.2985 34.3199C37.3185 33.8744 37.3883 33.434 37.503 33.0186H31.4287C31.5434 33.439 31.6132 33.8744 31.6332 34.3199C31.6382 34.425 31.6432 34.5351 31.6432 34.6402C31.6432 34.7203 31.6432 34.8004 31.6382 34.8754C31.6332 35.0656 31.6182 35.2508 31.5933 35.436C31.2791 37.9386 29.4837 39.9756 27.1149 40.6413V41.7324H29.2843C31.0347 41.7324 32.5608 42.7134 33.3388 44.1549H35.5929C36.3709 42.7134 37.897 41.7324 39.6475 41.7324Z" fill="#96C93D"/>
<path d="M33.3388 29.7901C33.5183 29.8301 33.7078 29.8652 33.8973 29.8852C34.0818 29.9052 34.2714 29.9152 34.4659 29.9152C34.6604 29.9152 34.8499 29.9052 35.0344 29.8852C35.2239 29.8652 35.4084 29.8301 35.5929 29.7901C35.7825 29.7501 35.967 29.69 36.1515 29.6299C37.897 29.0143 39.2086 27.4727 39.5078 25.5958C39.5377 25.4106 39.5527 25.2255 39.5627 25.0353C39.5627 24.9552 39.5677 24.8751 39.5677 24.795C39.5677 24.6899 39.5677 24.5848 39.5577 24.4747C39.5328 24.0292 39.448 23.5988 39.3083 23.1884C39.2485 23.0032 39.1787 22.823 39.0989 22.6478C39.0191 22.4676 38.9243 22.2975 38.8246 22.1273C37.9269 20.6558 36.3111 19.6748 34.4708 19.6748C32.6306 19.6748 31.0148 20.6558 30.1171 22.1273C30.0174 22.2975 29.9226 22.4676 29.8428 22.6478C29.763 22.823 29.6882 23.0032 29.6334 23.1884C29.4987 23.5988 29.4089 24.0292 29.384 24.4747C29.374 24.5798 29.374 24.6849 29.374 24.795C29.374 24.8751 29.374 24.9552 29.379 25.0353C29.389 25.2255 29.4089 25.4106 29.4339 25.5958C29.7281 27.4727 31.0397 29.0143 32.7902 29.6299C32.9697 29.695 33.1592 29.7501 33.3487 29.7901H33.3388Z" fill="#96C93D"/>
<path d="M57.7207 41.7324H59.8901V40.6413C57.5212 39.9756 55.7259 37.9386 55.4117 35.436C55.3867 35.2508 55.3718 35.0656 55.3668 34.8754C55.3668 34.7954 55.3618 34.7153 55.3618 34.6402C55.3618 34.5351 55.3618 34.425 55.3718 34.3199C55.3917 33.8744 55.4615 33.434 55.5762 33.0186H49.502C49.6167 33.439 49.6865 33.8744 49.7064 34.3199C49.7114 34.425 49.7164 34.5351 49.7164 34.6402C49.7164 34.7203 49.7164 34.8004 49.7114 34.8754C49.7064 35.0656 49.6915 35.2508 49.6665 35.436C49.3523 37.9386 47.557 39.9756 45.1881 40.6413V41.7324H47.3575C49.108 41.7324 50.634 42.7134 51.412 44.1549H53.6712C54.4492 42.7134 55.9702 41.7324 57.7257 41.7324H57.7207Z" fill="#96C93D"/>
<path d="M51.412 29.7901C51.5915 29.8301 51.7811 29.8652 51.9706 29.8852C52.1551 29.9052 52.3446 29.9152 52.5391 29.9152C52.7336 29.9152 52.9231 29.9052 53.1126 29.8852C53.3021 29.8652 53.4866 29.8301 53.6712 29.7851C53.8607 29.7451 54.0452 29.69 54.2297 29.6249C55.9752 29.0093 57.2868 27.4677 57.586 25.5908C57.616 25.4056 57.6309 25.2205 57.6409 25.0303C57.6409 24.9502 57.6459 24.8701 57.6459 24.79C57.6459 24.6849 57.6459 24.5798 57.6359 24.4697C57.611 24.0242 57.5262 23.5938 57.3866 23.1834C57.3267 22.9982 57.2569 22.818 57.1771 22.6428C57.0923 22.4626 57.0026 22.2875 56.8978 22.1223C56.0001 20.6558 54.3843 19.6748 52.5441 19.6748C50.7038 19.6748 49.088 20.6558 48.1903 22.1273C48.0906 22.2975 47.9958 22.4676 47.9161 22.6478C47.8363 22.823 47.7615 23.0032 47.7066 23.1884C47.5719 23.5988 47.4822 24.0292 47.4572 24.4747C47.4473 24.5798 47.4473 24.6849 47.4473 24.795C47.4473 24.8751 47.4473 24.9552 47.4523 25.0353C47.4622 25.2255 47.4822 25.4106 47.5071 25.5958C47.8014 27.4727 49.1179 29.0143 50.8634 29.6299C51.043 29.695 51.2325 29.7451 51.422 29.7901H51.412Z" fill="#96C93D"/>
<path d="M75.794 41.7326H77.9634V40.6414C75.3502 39.9057 73.4351 37.4982 73.4351 34.6403C73.4351 34.0798 73.5099 33.5342 73.6495 33.0137H67.5753C67.69 33.4341 67.7598 33.8695 67.7797 34.315C67.7847 34.4201 67.7897 34.5302 67.7897 34.6353C67.7897 34.7154 67.7897 34.7955 67.7847 34.8706C67.7797 35.0608 67.7648 35.2459 67.7398 35.4311C67.4256 37.9337 65.6303 39.9708 63.2614 40.6364V41.7275H65.4308C67.1813 41.7275 68.7073 42.7085 69.4853 44.15H71.7395C72.5175 42.7085 74.0435 41.7275 75.794 41.7275V41.7326Z" fill="#96C93D"/>
<path d="M65.9844 22.6531C65.9046 22.8283 65.8298 23.0084 65.7749 23.1936C65.6053 23.6991 65.5156 24.2397 65.5156 24.8003C65.5156 27.0325 66.9469 28.9345 68.9317 29.6352C69.1113 29.7003 69.3008 29.7503 69.4903 29.7954C69.6698 29.8354 69.8593 29.8704 70.0488 29.8905C70.2334 29.9105 70.4229 29.9205 70.6174 29.9205C73.4301 29.9205 75.7142 27.6231 75.7142 24.8003C75.7142 21.9774 73.4251 19.6851 70.6174 19.6851C68.7771 19.6851 67.1613 20.6661 66.2636 22.1376C66.1639 22.3077 66.0691 22.4779 65.9893 22.6581L65.9844 22.6531Z" fill="#96C93D"/>
<path d="M32.3713 44.7154C32.2666 44.5152 32.1419 44.33 31.9973 44.1548C31.3589 43.359 30.3764 42.8535 29.2793 42.8535H21.5742C20.477 42.8535 19.4996 43.364 18.8562 44.1548C18.7166 44.33 18.5919 44.5152 18.4872 44.7154C18.3924 44.8956 18.3126 45.0808 18.2528 45.276C18.1381 45.6213 18.0782 45.9867 18.0782 46.3671V53.9949H32.7852V46.3671C32.7852 45.9867 32.7254 45.6163 32.6107 45.276C32.5508 45.0808 32.471 44.8956 32.3763 44.7154H32.3713Z" fill="#96C93D"/>
<path d="M30.0523 32.493C29.9725 32.3129 29.8778 32.1427 29.778 31.9725C28.8803 30.501 27.2645 29.52 25.4243 29.52C23.584 29.52 21.9682 30.501 21.0705 31.9725C20.9708 32.1427 20.876 32.3129 20.7962 32.493C20.7164 32.6682 20.6416 32.8484 20.5868 33.0336C20.4521 33.444 20.3674 33.8745 20.3374 34.3149C20.3275 34.42 20.3275 34.5251 20.3275 34.6352C20.3275 34.7153 20.3275 34.7954 20.3324 34.8705C20.3424 35.0607 20.3624 35.2459 20.3873 35.431C20.6815 37.308 21.9931 38.8495 23.7436 39.4651C23.9232 39.5302 24.1127 39.5853 24.3022 39.6253C24.4817 39.6654 24.6712 39.7004 24.8607 39.7204C25.0453 39.7404 25.2348 39.7504 25.4293 39.7504C25.6238 39.7504 25.8133 39.7404 25.9978 39.7204C26.1873 39.7004 26.3718 39.6654 26.5563 39.6253C26.7459 39.5853 26.9304 39.5252 27.1149 39.4651C28.8604 38.8495 30.172 37.308 30.4712 35.431C30.5011 35.2509 30.5161 35.0607 30.5261 34.8705C30.5261 34.7904 30.5311 34.7103 30.5311 34.6352C30.5311 34.5251 30.5311 34.42 30.5211 34.3149C30.4912 33.8694 30.4114 33.439 30.2717 33.0336C30.2119 32.8484 30.1421 32.6682 30.0623 32.493H30.0523Z" fill="#96C93D"/>
<path d="M14.293 44.7154C14.1883 44.5152 14.0636 44.33 13.919 44.1548C13.2807 43.359 12.2982 42.8535 11.201 42.8535H3.50095C1.57094 42.8535 0 44.4301 0 46.3671V53.9949H14.707V46.3671C14.707 45.9867 14.6471 45.6163 14.5324 45.276C14.4726 45.0808 14.3928 44.8956 14.298 44.7154H14.293Z" fill="#96C93D"/>
<path d="M7.35597 39.7554C7.55047 39.7554 7.73998 39.7454 7.9245 39.7254C8.11401 39.7054 8.29854 39.6704 8.48306 39.6303C8.67257 39.5903 8.85709 39.5352 9.04161 39.4702C11.0265 38.7694 12.4578 36.8675 12.4578 34.6402C12.4578 34.0797 12.368 33.5391 12.1985 33.0336C12.1386 32.8484 12.0688 32.6682 11.989 32.493C11.9092 32.3129 11.8144 32.1427 11.7147 31.9725C10.817 30.501 9.2012 29.52 7.36096 29.52C4.54824 29.52 2.25916 31.8174 2.25916 34.6352C2.25916 37.4531 4.54824 39.7504 7.36096 39.7504L7.35597 39.7554Z" fill="#96C93D"/>
<path d="M50.4396 44.7154C50.3348 44.5152 50.2102 44.33 50.0655 44.1548C49.4272 43.359 48.4447 42.8535 47.3476 42.8535H39.6425C38.5453 42.8535 37.5679 43.364 36.9245 44.1548C36.7849 44.33 36.6552 44.5152 36.5505 44.7154C36.4557 44.8956 36.3759 45.0808 36.3161 45.276C36.2014 45.6213 36.1415 45.9867 36.1415 46.3671V53.9949H50.8485V46.3671C50.8485 45.9867 50.7887 45.6163 50.674 45.276C50.6141 45.0808 50.5343 44.8956 50.4396 44.7154Z" fill="#96C93D"/>
<path d="M48.1305 32.493C48.0507 32.3129 47.956 32.1427 47.8562 31.9725C46.9586 30.501 45.3427 29.52 43.5025 29.52C41.6623 29.52 40.0464 30.501 39.1488 31.9725C39.044 32.1427 38.9493 32.3129 38.8695 32.493C38.7897 32.6682 38.7149 32.8484 38.66 33.0336C38.5254 33.444 38.4406 33.8745 38.4107 34.3149C38.4007 34.42 38.4007 34.5251 38.4007 34.6352C38.4007 34.7153 38.4007 34.7954 38.4057 34.8705C38.4157 35.0607 38.4356 35.2459 38.4605 35.431C38.7548 37.308 40.0664 38.8495 41.8169 39.4651C41.9964 39.5302 42.1859 39.5803 42.3754 39.6253C42.555 39.6704 42.7445 39.7004 42.934 39.7254C43.1185 39.7454 43.313 39.7554 43.5075 39.7554C43.702 39.7554 43.8915 39.7454 44.076 39.7254C44.2655 39.7054 44.4501 39.6704 44.6346 39.6303C44.8241 39.5903 45.0086 39.5302 45.1931 39.4702C46.9386 38.8545 48.2502 37.313 48.5494 35.436C48.5794 35.2559 48.5943 35.0657 48.6043 34.8755C48.6043 34.7954 48.6093 34.7153 48.6093 34.6402C48.6093 34.5301 48.6093 34.425 48.5993 34.3199C48.5694 33.8745 48.4896 33.444 48.35 33.0386C48.2901 32.8534 48.2203 32.6732 48.1405 32.4981L48.1305 32.493Z" fill="#96C93D"/>
<path d="M68.5178 44.7154C68.4131 44.5152 68.2884 44.33 68.1438 44.1548C67.5054 43.359 66.523 42.8535 65.4258 42.8535H57.7207C56.6236 42.8535 55.6461 43.364 55.0028 44.1548C54.8631 44.33 54.7385 44.5152 54.6337 44.7154C54.539 44.8956 54.4592 45.0808 54.3993 45.276C54.2846 45.6213 54.2248 45.9867 54.2248 46.3671V53.9949H68.9318V46.3671C68.9318 45.9867 68.8719 45.6163 68.7572 45.276C68.6974 45.0808 68.6176 44.8956 68.5228 44.7154H68.5178Z" fill="#96C93D"/>
<path d="M66.1988 32.493C66.119 32.3129 66.0242 32.1427 65.9245 31.9725C65.0268 30.501 63.411 29.52 61.5708 29.52C59.7305 29.52 58.1147 30.501 57.217 31.9725C57.1173 32.1427 57.0225 32.3129 56.9427 32.493C56.8629 32.6682 56.7881 32.8484 56.7333 33.0336C56.5986 33.444 56.5138 33.8745 56.4839 34.3149C56.4739 34.42 56.4739 34.5251 56.4739 34.6352C56.4739 34.7153 56.4739 34.7954 56.4789 34.8705C56.4889 35.0607 56.5088 35.2459 56.5338 35.431C56.828 37.308 58.1446 38.8495 59.8901 39.4651C60.0696 39.5302 60.2591 39.5803 60.4487 39.6253C60.6282 39.6654 60.8177 39.7004 61.0072 39.7204C61.1917 39.7404 61.3812 39.7504 61.5757 39.7504C61.7702 39.7504 61.9598 39.7404 62.1443 39.7204C62.3338 39.7004 62.5183 39.6654 62.7028 39.6253C62.8923 39.5853 63.0769 39.5302 63.2614 39.4651C65.0069 38.8495 66.3185 37.308 66.6177 35.431C66.6476 35.2509 66.6626 35.0607 66.6726 34.8705C66.6726 34.7904 66.6775 34.7103 66.6775 34.6352C66.6775 34.5251 66.6775 34.42 66.6676 34.3149C66.6377 33.8694 66.5579 33.439 66.4182 33.0336C66.3584 32.8484 66.2886 32.6682 66.2088 32.493H66.1988Z" fill="#96C93D"/>
<path d="M83.499 42.8535H75.794C74.6968 42.8535 73.7193 43.364 73.076 44.1548C72.9364 44.33 72.8067 44.5152 72.702 44.7154C72.6072 44.8956 72.5274 45.0808 72.4676 45.276C72.3529 45.6213 72.293 45.9867 72.293 46.3671V53.9949H87V46.3671C87 44.4301 85.429 42.8535 83.499 42.8535Z" fill="#96C93D"/>
<path d="M75.016 32.4933C74.9362 32.6685 74.8614 32.8487 74.8065 33.0338C74.637 33.5394 74.5472 34.0799 74.5472 34.6405C74.5472 36.8677 75.9735 38.7697 77.9633 39.4704C78.1429 39.5355 78.3324 39.5855 78.5219 39.6306C78.7014 39.6756 78.891 39.7056 79.0805 39.7307C79.265 39.7507 79.4595 39.7607 79.654 39.7607C82.4667 39.7607 84.7508 37.4634 84.7508 34.6455C84.7508 31.8276 82.4617 29.5303 79.654 29.5303C77.8137 29.5303 76.1979 30.5113 75.3002 31.9778C75.1955 32.1479 75.1057 32.3231 75.021 32.4983L75.016 32.4933Z" fill="#96C93D"/>
</g>
<defs>
<clipPath id="clip0_154_273">
<rect width="87" height="54" fill="white"/>
</clipPath>
</defs>
</svg>
